<svg width="640" height="640" viewBox="0 0 640 640" xmlns="http://www.w3.org/2000/svg" role="img" aria-label="Zaava Collection logo">
  <defs>
    <linearGradient id="bg" x1="0" y1="0" x2="1" y2="1">
      <stop offset="0%" stop-color="#b20000"/>
      <stop offset="100%" stop-color="#780000"/>
    </linearGradient>
    <linearGradient id="gold" x1="0" y1="0" x2="1" y2="1">
      <stop offset="0%" stop-color="#f7d774"/>
      <stop offset="100%" stop-color="#b7831f"/>
    </linearGradient>
  </defs>

  <rect width="640" height="640" rx="48" fill="url(#bg)"/>

  <g transform="translate(320 205)">
    <circle cx="-72" cy="-12" r="15" fill="#f0c2a0"/>
    <path d="M-94 32C-90 3 -82 -9 -72 -9C-62 -9 -53 5 -50 32L-72 42Z" fill="#0e5f43"/>

    <circle cx="-36" cy="-24" r="18" fill="#f0c2a0"/>
    <path d="M-62 38C-58 0 -48 -20 -36 -20C-24 -20 -12 1 -10 38L-36 50Z" fill="#1b7f59"/>

    <circle cx="0" cy="-30" r="21" fill="#f0c2a0"/>
    <path d="M-30 58C-24 2 -13 -24 0 -24C13 -24 24 2 30 58L0 70Z" fill="#7d2133"/>

    <circle cx="36" cy="-24" r="18" fill="#f0c2a0"/>
    <path d="M10 38C14 1 24 -20 36 -20C48 -20 58 0 62 38L36 50Z" fill="#1b7f59"/>

    <circle cx="72" cy="-12" r="15" fill="#f0c2a0"/>
    <path d="M50 32C53 5 62 -9 72 -9C82 -9 90 3 94 32L72 42Z" fill="#a11e2f"/>
  </g>

  <text x="320" y="430" text-anchor="middle" font-family="Georgia, 'Times New Roman', serif" font-size="88" letter-spacing="3" fill="url(#gold)">
    ZAAVA
  </text>
  <text x="320" y="500" text-anchor="middle" font-family="Georgia, 'Times New Roman', serif" font-size="62" letter-spacing="2" fill="url(#gold)">
    COLLECTION
  </text>
</svg>
